<svg xmlns="http://www.w3.org/2000/svg" viewBox="0 0 900 440"><defs>
<linearGradient id="sky" x2="0" y2="1"><stop stop-color="#69c5ff"/><stop offset=".52" stop-color="#c7f2ff"/><stop offset="1" stop-color="#a6edf0"/></linearGradient>
<linearGradient id="sea" x2="0" y2="1"><stop stop-color="#60b7ef"/><stop offset="1" stop-color="#1f87ca"/></linearGradient>
<linearGradient id="land" x2="0" y2="1"><stop stop-color="#fff2bf"/><stop offset=".4" stop-color="#f2ca90"/><stop offset="1" stop-color="#c78e76"/></linearGradient>
<linearGradient id="road" x1="0" x2="1"><stop stop-color="#ffac74"/><stop offset=".4" stop-color="#ffed9e"/><stop offset="1" stop-color="#ffd371"/></linearGradient>
<filter id="glow"><feGaussianBlur stdDeviation="9"/></filter>
</defs>
<rect width="900" height="440" rx="35" fill="url(#sky)"/><path d="M0 236Q235 173 470 240T900 206V440H0Z" fill="url(#sea)"/>
<ellipse cx="735" cy="215" rx="189" ry="65" fill="#ffffff" opacity=".32" filter="url(#glow)"/>
<g fill="#fff" opacity=".7"><ellipse cx="310" cy="87" rx="109" ry="24"/><ellipse cx="724" cy="81" rx="107" ry="19"/><ellipse cx="538" cy="123" rx="74" ry="13"/></g>
<g><path d="M300 326Q364 302 444 320L459 367Q392 405 299 362Z" fill="#bda19b"/><path d="M284 316Q375 291 468 316Q432 342 287 331Z" fill="#fee4a0"/><path d="M472 248Q580 221 674 243L699 327Q599 354 502 314Z" fill="#aaa1a3"/><path d="M453 241Q588 211 681 238Q628 274 471 259Z" fill="#fce6a0"/><path d="M667 152Q777 121 873 146L896 241Q804 272 702 237Z" fill="#8e9b9d"/><path d="M658 144Q793 115 882 141Q830 172 663 160Z" fill="#ffe59a"/></g>
<path d="M280 323C366 274 430 347 494 300S600 218 678 241 755 170 845 151" fill="none" stroke="#fff8db" stroke-width="38" opacity=".9"/>
<path d="M280 323C366 274 430 347 494 300S600 218 678 241 755 170 845 151" fill="none" stroke="url(#road)" stroke-width="21" stroke-linecap="round"/>
<path d="M280 323C366 274 430 347 494 300S600 218 678 241 755 170 845 151" fill="none" stroke="#fff7d9" stroke-width="2.5" stroke-dasharray="3 18"/>
<g fill="#e9ffdd" stroke="#72ad75" stroke-width="4"><circle cx="339" cy="308" r="7"/><circle cx="447" cy="313" r="6"/><circle cx="550" cy="275" r="8"/><circle cx="642" cy="244" r="7"/><circle cx="758" cy="185" r="6"/></g>
<g transform="translate(308 262)"><circle cx="0" cy="0" r="29" fill="#69b0ed" stroke="#fff" stroke-width="6"/><text x="0" y="11" fill="white" font-size="30" text-anchor="middle" font-weight="900">1</text></g>
<g transform="translate(461 293)"><circle cx="0" cy="0" r="29" fill="#66d79e" stroke="#fff" stroke-width="6"/><text x="0" y="11" fill="white" font-size="30" text-anchor="middle" font-weight="900">2</text></g>
<g transform="translate(627 208)"><circle cx="0" cy="0" r="29" fill="#ffb75a" stroke="#fff" stroke-width="6"/><text x="0" y="11" fill="white" font-size="30" text-anchor="middle" font-weight="900">3</text></g>
<g transform="translate(787 156)"><circle cx="0" cy="0" r="29" fill="#c17ae6" stroke="#fff" stroke-width="6"/><text x="0" y="11" fill="white" font-size="30" text-anchor="middle" font-weight="900">4</text></g>
<g stroke="#875f51" stroke-width="6"><path d="M382 288v-60M731 181v-62"/></g><path d="M382 230l48 9-48 18Z" fill="#f35c69"/><path d="M731 121l50 9-50 20Z" fill="#ec525c"/>
<g transform="translate(786 95)"><path d="M-41 14v-33h82v33z" fill="#ca6e3a" stroke="#ffe7a2" stroke-width="6"/><rect x="-44" y="-44" width="88" height="33" rx="10" fill="#f9b74d" stroke="#fff2c5" stroke-width="5"/><path d="M-4-42v56" stroke="#ffe7a2" stroke-width="12"/><path d="M0-25l8 14 15 3-12 11 1 15L0 11l-13 7 2-15-12-11 15-3Z" fill="#ffe966"/></g>
<path d="M458 356Q492 383 507 439" stroke="#ffffff" stroke-width="11" opacity=".7"/>
<path d="M677 326Q712 384 705 440" stroke="#ffffff" stroke-width="13" opacity=".6"/>
<g><circle cx="43" cy="19" r="2.1" fill="#fff5ae" opacity="0.4"/><circle cx="140" cy="80" r="1.05" fill="white" opacity="0.54"/><circle cx="237" cy="141" r="1.05" fill="white" opacity="0.68"/><circle cx="334" cy="202" r="1.05" fill="#fff5ae" opacity="0.8200000000000001"/><circle cx="431" cy="263" r="2.1" fill="white" opacity="0.4"/><circle cx="528" cy="324" r="1.05" fill="white" opacity="0.54"/><circle cx="625" cy="385" r="1.05" fill="#fff5ae" opacity="0.68"/><circle cx="722" cy="6" r="1.05" fill="white" opacity="0.8200000000000001"/><circle cx="819" cy="67" r="2.1" fill="white" opacity="0.4"/><circle cx="16" cy="128" r="1.05" fill="#fff5ae" opacity="0.54"/><circle cx="113" cy="189" r="1.05" fill="white" opacity="0.68"/><circle cx="210" cy="250" r="1.05" fill="white" opacity="0.8200000000000001"/><circle cx="307" cy="311" r="2.1" fill="#fff5ae" opacity="0.4"/><circle cx="404" cy="372" r="1.05" fill="white" opacity="0.54"/><circle cx="501" cy="433" r="1.05" fill="white" opacity="0.68"/><circle cx="598" cy="54" r="1.05" fill="#fff5ae" opacity="0.8200000000000001"/><circle cx="695" cy="115" r="2.1" fill="white" opacity="0.4"/><circle cx="792" cy="176" r="1.05" fill="white" opacity="0.54"/><circle cx="889" cy="237" r="1.05" fill="#fff5ae" opacity="0.68"/><circle cx="86" cy="298" r="1.05" fill="white" opacity="0.8200000000000001"/><circle cx="183" cy="359" r="2.1" fill="white" opacity="0.4"/><circle cx="280" cy="420" r="1.05" fill="#fff5ae" opacity="0.54"/><circle cx="377" cy="41" r="1.05" fill="white" opacity="0.68"/><circle cx="474" cy="102" r="1.05" fill="white" opacity="0.8200000000000001"/><circle cx="571" cy="163" r="2.1" fill="#fff5ae" opacity="0.4"/><circle cx="668" cy="224" r="1.05" fill="white" opacity="0.54"/><circle cx="765" cy="285" r="1.05" fill="white" opacity="0.68"/><circle cx="862" cy="346" r="1.05" fill="#fff5ae" opacity="0.8200000000000001"/><circle cx="59" cy="407" r="2.1" fill="white" opacity="0.4"/><circle cx="156" cy="28" r="1.05" fill="white" opacity="0.54"/><circle cx="253" cy="89" r="1.05" fill="#fff5ae" opacity="0.68"/><circle cx="350" cy="150" r="1.05" fill="white" opacity="0.8200000000000001"/><circle cx="447" cy="211" r="2.1" fill="white" opacity="0.4"/><circle cx="544" cy="272" r="1.05" fill="#fff5ae" opacity="0.54"/><circle cx="641" cy="333" r="1.05" fill="white" opacity="0.68"/><circle cx="738" cy="394" r="1.05" fill="white" opacity="0.8200000000000001"/><circle cx="835" cy="15" r="2.1" fill="#fff5ae" opacity="0.4"/><circle cx="32" cy="76" r="1.05" fill="white" opacity="0.54"/><circle cx="129" cy="137" r="1.05" fill="white" opacity="0.68"/><circle cx="226" cy="198" r="1.05" fill="#fff5ae" opacity="0.8200000000000001"/><circle cx="323" cy="259" r="2.1" fill="white" opacity="0.4"/><circle cx="420" cy="320" r="1.05" fill="white" opacity="0.54"/><circle cx="517" cy="381" r="1.05" fill="#fff5ae" opacity="0.68"/><circle cx="614" cy="2" r="1.05" fill="white" opacity="0.8200000000000001"/><circle cx="711" cy="63" r="2.1" fill="white" opacity="0.4"/><circle cx="808" cy="124" r="1.05" fill="#fff5ae" opacity="0.54"/><circle cx="5" cy="185" r="1.05" fill="white" opacity="0.68"/><circle cx="102" cy="246" r="1.05" fill="white" opacity="0.8200000000000001"/><circle cx="199" cy="307" r="2.1" fill="#fff5ae" opacity="0.4"/><circle cx="296" cy="368" r="1.05" fill="white" opacity="0.54"/><circle cx="393" cy="429" r="1.05" fill="white" opacity="0.68"/><circle cx="490" cy="50" r="1.05" fill="#fff5ae" opacity="0.8200000000000001"/><circle cx="587" cy="111" r="2.1" fill="white" opacity="0.4"/><circle cx="684" cy="172" r="1.05" fill="white" opacity="0.54"/><circle cx="781" cy="233" r="1.05" fill="#fff5ae" opacity="0.68"/><circle cx="878" cy="294" r="1.05" fill="white" opacity="0.8200000000000001"/><circle cx="75" cy="355" r="2.1" fill="white" opacity="0.4"/><circle cx="172" cy="416" r="1.05" fill="#fff5ae" opacity="0.54"/><circle cx="269" cy="37" r="1.05" fill="white" opacity="0.68"/><circle cx="366" cy="98" r="1.05" fill="white" opacity="0.8200000000000001"/><circle cx="463" cy="159" r="2.1" fill="#fff5ae" opacity="0.4"/><circle cx="560" cy="220" r="1.05" fill="white" opacity="0.54"/><circle cx="657" cy="281" r="1.05" fill="white" opacity="0.68"/><circle cx="754" cy="342" r="1.05" fill="#fff5ae" opacity="0.8200000000000001"/><circle cx="851" cy="403" r="2.1" fill="white" opacity="0.4"/><circle cx="48" cy="24" r="1.05" fill="white" opacity="0.54"/><circle cx="145" cy="85" r="1.05" fill="#fff5ae" opacity="0.68"/><circle cx="242" cy="146" r="1.05" fill="white" opacity="0.8200000000000001"/><circle cx="339" cy="207" r="2.1" fill="white" opacity="0.4"/><circle cx="436" cy="268" r="1.05" fill="#fff5ae" opacity="0.54"/><circle cx="533" cy="329" r="1.05" fill="white" opacity="0.68"/><circle cx="630" cy="390" r="1.05" fill="white" opacity="0.8200000000000001"/><circle cx="727" cy="11" r="2.1" fill="#fff5ae" opacity="0.4"/><circle cx="824" cy="72" r="1.05" fill="white" opacity="0.54"/><circle cx="21" cy="133" r="1.05" fill="white" opacity="0.68"/><circle cx="118" cy="194" r="1.05" fill="#fff5ae" opacity="0.8200000000000001"/><circle cx="215" cy="255" r="2.1" fill="white" opacity="0.4"/><circle cx="312" cy="316" r="1.05" fill="white" opacity="0.54"/><circle cx="409" cy="377" r="1.05" fill="#fff5ae" opacity="0.68"/><circle cx="506" cy="438" r="1.05" fill="white" opacity="0.8200000000000001"/><circle cx="603" cy="59" r="2.1" fill="white" opacity="0.4"/><circle cx="700" cy="120" r="1.05" fill="#fff5ae" opacity="0.54"/><circle cx="797" cy="181" r="1.05" fill="white" opacity="0.68"/><circle cx="894" cy="242" r="1.05" fill="white" opacity="0.8200000000000001"/><circle cx="91" cy="303" r="2.1" fill="#fff5ae" opacity="0.4"/><circle cx="188" cy="364" r="1.05" fill="white" opacity="0.54"/><circle cx="285" cy="425" r="1.05" fill="white" opacity="0.68"/><circle cx="382" cy="46" r="1.05" fill="#fff5ae" opacity="0.8200000000000001"/><circle cx="479" cy="107" r="2.1" fill="white" opacity="0.4"/><circle cx="576" cy="168" r="1.05" fill="white" opacity="0.54"/><circle cx="673" cy="229" r="1.05" fill="#fff5ae" opacity="0.68"/><circle cx="770" cy="290" r="1.05" fill="white" opacity="0.8200000000000001"/><circle cx="867" cy="351" r="2.1" fill="white" opacity="0.4"/><circle cx="64" cy="412" r="1.05" fill="#fff5ae" opacity="0.54"/><circle cx="161" cy="33" r="1.05" fill="white" opacity="0.68"/></g>
</svg>